PathFileType	4	(X/Y/Z)	c:/Users/goper/Files/vsCode/490R/osim_files/C17/C17_Slow_04.trc
DataRate	CameraRate	NumFrames	NumMarkers	Units                	OrigDataRate	OrigDataStartFrame	OrigNumFrames
250.00	250.00	7	36	mm	250.0	1502	3002
                Frame#	Time	LPSIS			LASIS			LTH1			LTH2			LTH3			LTH4			LLFE			LMFE			LSH1			LSH2			LSH3			LSH4			LLMAL			LMMAL			LCAL			LMTP5			LTOE			LMTP1			RPSIS			RASIS			RTH1			RTH2			RTH3			RTH4			RLFE			RMFE			RSH1			RSH2			RSH3			RSH4			RLMAL			RMMAL			RCAL			RMTP1			RTOE			RMTP5		
		X1	Y1	Z1	X2	Y2	Z2	X3	Y3	Z3	X4	Y4	Z4	X5	Y5	Z5	X6	Y6	Z6	X7	Y7	Z7	X8	Y8	Z8	X9	Y9	Z9	X10	Y10	Z10	X11	Y11	Z11	X12	Y12	Z12	X13	Y13	Z13	X14	Y14	Z14	X15	Y15	Z15	X16	Y16	Z16	X17	Y17	Z17	X18	Y18	Z18	X19	Y19	Z19	X20	Y20	Z20	X21	Y21	Z21	X22	Y22	Z22	X23	Y23	Z23	X24	Y24	Z24	X25	Y25	Z25	X26	Y26	Z26	X27	Y27	Z27	X28	Y28	Z28	X29	Y29	Z29	X30	Y30	Z30	X31	Y31	Z31	X32	Y32	Z32	X33	Y33	Z33	X34	Y34	Z34	X35	Y35	Z35	X36	Y36	Z36

1502	6.00400	919.19427	1078.77893	214.59988	726.03198	1032.56030	304.28104	684.15485	709.98871	361.99268	656.74292	673.70020	358.73260	633.29327	743.90460	364.23953	611.75330	702.76099	359.42294	592.86737	528.85004	337.92303	583.34912	528.81055	213.12912	642.84344	298.94211	335.20999	637.08319	255.35490	332.90646	579.78137	298.14374	343.98956	583.98236	255.42642	338.31949	617.40723	110.46622	322.63037	583.62543	120.28358	238.84355	676.22449	67.98127	258.45621	506.88870	55.72661	369.21579	438.82388	85.87570	320.67230	441.51263	61.62688	270.54642	913.26111	1077.75183	140.97824	731.33954	1045.28638	36.82379	809.52655	752.37048	-12.70625	810.74207	706.23340	-2.93369	751.03223	748.14233	2.09185	759.53400	700.96332	5.84198	811.15814	483.19531	35.36927	827.13409	505.67938	157.97670	920.62585	299.33951	38.87666	925.93414	257.74927	54.25812	858.99054	290.65439	49.11264	870.82727	246.48756	63.43239	948.70337	90.41502	103.22159	923.63605	111.08534	188.37744	1024.31567	61.40625	145.32973	794.20178	38.19139	201.90022	775.18280	59.63559	156.08635	827.73126	32.53003	84.11266
1503	6.00800	914.33386	1078.12036	215.20544	720.62592	1031.60657	304.53299	679.66956	708.68719	361.59683	652.43616	672.38611	358.26321	628.79352	742.56018	363.89987	607.28583	701.35168	359.05917	587.89722	527.85034	337.68097	579.64606	527.39819	212.99997	633.19373	297.09488	336.30017	624.95813	252.82053	332.96469	569.07080	297.32620	344.14478	571.95673	254.09830	338.67093	601.73022	108.73336	323.06836	568.20404	119.30956	239.29190	659.51562	64.87708	258.98636	489.95944	56.90809	369.91196	422.32843	88.66153	321.33496	424.65598	63.84709	271.72086	908.33807	1077.28162	141.64876	726.80713	1045.26880	36.96405	805.97491	752.08508	-12.57501	807.38849	705.93134	-2.81133	747.44574	747.47723	2.27804	756.22992	700.48224	5.96759	808.97455	482.86539	35.46288	824.83844	505.43140	158.11591	919.26154	299.50009	38.86571	924.79443	257.93686	54.25217	857.79730	290.60272	49.02308	869.73230	246.38995	63.42361	948.46259	90.65660	103.14252	923.32739	111.21521	188.34511	1024.16431	61.72485	145.26416	794.09741	38.10486	201.90503	775.03308	59.43744	156.11914	827.67865	32.49019	84.06933
1504	6.01200	909.20282	1077.48633	215.90236	715.33423	1030.55298	304.82727	675.19928	707.30737	361.14301	648.22919	671.04419	357.85672	624.21454	741.01483	363.60214	602.99097	699.77234	358.71097	583.22797	526.87488	337.52762	575.03149	525.58826	212.48222	620.67145	292.72034	334.18607	613.06958	250.66502	333.17108	558.51678	296.70889	344.27368	560.92969	253.44214	338.81750	586.14008	107.18220	323.56833	552.94067	118.57685	239.70192	642.48798	61.30266	259.33920	473.21527	58.73365	370.72449	406.28583	91.96956	321.92697	407.83682	67.27287	271.95621	903.42871	1076.78992	142.25291	722.03967	1044.70447	37.26642	802.36096	751.76501	-12.39303	804.04254	705.66821	-2.68876	743.95697	746.94739	2.42566	752.59241	699.82489	6.57185	806.74738	482.59012	35.56117	822.34521	505.02652	158.19800	918.35828	299.99930	38.68036	923.72510	258.18280	54.19595	856.63623	290.56354	48.98905	868.54907	247.10069	63.14293	948.16083	90.96508	103.08768	922.82739	111.45590	188.61319	1023.96265	62.02430	145.21913	794.39380	38.17738	201.92761	774.90356	59.29796	156.13791	827.66614	32.48245	84.04339
1505	6.01600	903.81207	1076.87708	216.67491	710.13525	1029.53845	305.27423	670.87054	705.92120	360.70105	644.15118	669.62476	357.47647	619.76880	739.39716	363.28079	598.88458	698.22815	358.35898	578.54407	525.91846	337.41373	571.02307	523.91779	212.29449	609.89246	290.45300	334.18073	601.37738	248.70515	333.38211	547.96265	296.19244	344.39990	549.02686	252.28348	339.08539	570.63306	105.87366	323.99570	537.85321	118.02666	240.08266	625.68903	59.97169	260.44382	456.27029	60.38526	370.89853	390.51718	95.55843	322.29913	391.40466	70.70953	272.25861	898.38568	1076.24597	142.92278	716.93353	1043.71301	37.81170	798.78033	751.47467	-12.24702	800.66638	705.36029	-2.49201	740.43713	746.41998	2.56051	749.32428	699.25885	6.74075	804.44403	482.15387	35.78944	820.03235	504.74295	158.36879	916.65393	299.86920	38.81641	922.57794	258.36353	54.19262	855.22339	290.36932	49.05267	867.60236	246.33559	63.44251	947.63525	91.46799	103.02445	922.64984	111.55474	188.33295	1023.79828	62.40909	145.12427	793.95758	37.98507	201.94359	774.78778	59.18334	156.15817	827.62854	32.42472	84.01739
1506	6.02000	898.62744	1076.25769	217.33464	704.56659	1028.36560	305.44690	666.70508	704.47253	360.33621	640.00024	668.06879	357.14835	615.42957	737.73029	363.02133	594.64258	696.55554	357.90976	573.83612	524.94055	337.24228	566.85809	522.10608	212.18407	599.39227	288.47308	334.37787	588.80530	243.38426	331.22952	537.66772	295.79095	344.47781	538.00366	251.98997	339.40836	555.18982	104.78484	324.43256	523.06024	117.73398	240.39580	610.98175	57.54824	262.31689	439.54208	62.64083	371.12744	375.59924	99.92361	321.92871	375.31705	74.19930	272.50192	893.36670	1075.69861	143.60492	712.30884	1042.94739	37.91532	795.11420	751.11469	-12.03404	797.21729	705.02484	-2.32206	736.82581	745.80566	2.78591	746.16437	698.81232	6.58825	802.36389	481.97372	35.82673	817.63660	504.45566	158.48956	915.77246	300.39810	38.62637	921.51062	258.59222	54.17292	853.95654	290.22543	49.08193	866.40051	247.11510	63.17014	947.17279	91.75153	102.99561	922.37610	111.74882	188.31320	1023.62555	62.75639	145.05113	793.89764	37.92677	201.93265	774.68573	59.08999	156.18456	827.63239	32.38115	84.00493
1507	6.02400	893.45709	1075.58545	218.04272	699.14844	1027.19629	305.81570	662.56836	702.86804	360.03558	636.13080	666.45911	356.84396	611.23865	735.99646	362.66974	590.66241	694.75330	357.60812	569.24939	523.89233	337.15979	562.82074	520.30463	212.10811	588.83008	286.52719	334.42685	578.42468	244.33957	332.82867	527.37354	295.50281	344.63205	526.63092	251.56406	340.45026	540.02747	103.97983	324.92249	508.59323	117.69205	240.66428	593.46405	53.81203	262.08966	422.87793	65.25377	371.17746	360.29102	104.20126	321.50769	359.56110	78.29184	272.23978	888.31049	1075.12329	144.32498	707.51318	1042.23364	38.24283	791.46783	750.78088	-11.84210	793.87482	704.75262	-2.17966	733.21136	745.09772	3.00818	742.87335	698.25085	6.81918	800.11847	481.51468	36.02715	815.26343	504.11911	158.63962	914.02783	300.24820	38.83338	920.39539	258.80878	54.16961	852.77728	290.16553	49.04861	865.52557	246.20422	63.46190	946.98755	91.95476	102.94266	922.09583	111.92036	188.31007	1023.43378	63.08526	144.94318	793.84845	37.87805	201.95340	774.58734	59.01436	156.19838	827.61804	32.33680	83.98643
1508	6.02800	888.21930	1074.86389	218.77614	694.03436	1026.11353	306.40720	658.43250	701.14600	359.78043	632.18677	664.72662	356.48456	607.10657	734.22943	362.42062	586.76898	692.87549	357.34607	564.63379	522.78760	337.04016	558.69696	518.36749	211.98206	580.92737	288.16586	338.51083	567.07397	243.93777	334.24835	517.16370	295.31107	344.70593	515.34619	251.47722	340.84930	524.84375	103.38958	325.33636	494.34497	117.76257	240.94519	577.46362	51.74095	263.03369	406.38599	68.00105	370.97318	345.36154	108.70319	320.82657	344.04828	82.60591	271.56924	883.25238	1074.52319	145.02170	702.36761	1041.46582	38.88948	787.82574	750.48486	-11.68971	790.42310	704.42560	-1.93977	729.66736	744.56555	3.14564	739.51831	697.67212	6.98888	798.03687	481.34552	36.10047	812.95184	503.80008	158.77553	912.77936	300.50757	38.80787	919.33624	259.02539	54.15380	851.50775	290.14136	49.06688	864.54968	246.19052	63.43643	946.74731	92.25098	102.87275	921.80328	112.09963	188.29059	1023.29810	63.48304	144.86102	793.78632	37.82199	201.98145	774.52014	58.94786	156.22307	827.56030	32.30109	83.98302
